C:\GBW_MyPrograms\KinderuniversiteitApp\Resultaten\Ellis\Smurf\Smurf_v1.mot
version=1
nRows=13
nColumns=29
inDegrees=yes
endheader
                time	         pelvis_tilt	           pelvis_tx	           pelvis_ty	       hip_flexion_l	       hip_flexion_r	        knee_angle_l	        knee_angle_r	       ankle_angle_l	       ankle_angle_r	    lumbar_extension	hamstrings_r/activation	bifemsh_r/activation	glut_max_r/activation	iliopsoas_r/activation	rect_fem_r/activation	  vasti_r/activation	gastroc_r/activation	 soleus_r/activation	tib_ant_r/activation	hamstrings_l/activation	bifemsh_l/activation	glut_max_l/activation	iliopsoas_l/activation	rect_fem_l/activation	  vasti_l/activation	gastroc_l/activation	 soleus_l/activation	tib_ant_l/activation	
          0.99999984	         -8.68981600	          0.19999997	          0.91200946	         26.01450374	          5.11412171	        -13.88363369	         -0.62812704	          1.96530393	         11.64309078	          1.29524617	          0.05000317	          0.05003422	          0.05000490	          0.34269752	          0.16361810	          0.05002963	          0.05005930	          0.05745863	          0.08665139	          0.05000263	          0.05001349	          0.05000657	          0.18354080	          0.18265571	          0.08182364	          0.05000447	          0.05000378	          0.25627194	
          1.01999984	         -8.71490620	          0.20678979	          0.91164598	         24.91267041	          4.68828513	        -12.49881981	         -0.70523889	          1.40774600	         12.03660046	          1.55468748	          0.05000473	          0.05004664	          0.05000616	          0.28392152	          0.14709056	          0.05002441	          0.05021955	          0.07894730	          0.06499271	          0.05000442	          0.05002115	          0.05000801	          0.13765614	          0.19182933	          0.13121509	          0.05000757	          0.05001203	          0.24368931	
          1.03999984	         -8.72039605	          0.21407246	          0.91142328	         23.64828538	          4.21877252	        -10.99781142	         -0.79883856	          1.04188871	         12.38642236	          1.84391181	          0.05000400	          0.05002708	          0.05000635	          0.21557829	          0.15382542	          0.05600931	          0.05003020	          0.09700108	          0.05001252	          0.05000390	          0.05000745	          0.10147808	          0.10324255	          0.22582510	          0.23713136	          0.05000200	          0.05000300	          0.29287387	
          1.05999983	         -8.70765230	          0.22165270	          0.91149645	         22.34781570	          3.71772558	         -9.51660660	         -0.90006269	          0.84340259	         12.65851537	          2.14190069	          0.05000391	          0.05002495	          0.05000567	          0.19508147	          0.15995654	          0.09065196	          0.05002363	          0.10664445	          0.05001516	          0.05000390	          0.05000582	          0.19363100	          0.07743240	          0.25470272	          0.31895216	          0.05000144	          0.05000233	          0.30829694	
          1.07999983	         -8.67757573	          0.22935715	          0.91188637	         21.08867991	          3.19234675	         -8.17000647	         -0.99557507	          0.81155419	         12.82849936	          2.43070478	          0.05000435	          0.05002257	          0.05000809	          0.17490425	          0.16303078	          0.11392375	          0.05001583	          0.10934422	          0.05001821	          0.05000437	          0.05000512	          0.25355822	          0.05807505	          0.27344601	          0.37377459	          0.05000155	          0.05000393	          0.29447369	
          1.09999983	         -8.63071201	          0.23707246	          0.91248076	         19.88076353	          2.64616345	         -6.96103262	         -1.07562808	          0.92309553	         12.89240199	          2.69991221	          0.05000490	          0.05002194	          0.05001056	          0.14236245	          0.15641268	          0.11942900	          0.05001440	          0.11514383	          0.05001965	          0.05000540	          0.05000528	          0.27465277	          0.05000210	          0.27269067	          0.39530430	          0.05000151	          0.05000359	          0.29687076	
          1.11999983	         -8.56756065	          0.24472555	          0.91312453	         18.71449179	          2.07970396	         -5.85906420	         -1.13282834	          1.12120896	         12.87208864	          2.94399404	          0.05000475	          0.05002264	          0.05000763	          0.10778482	          0.14169013	          0.11798894	          0.05001541	          0.12604435	          0.05001971	          0.05000556	          0.05000587	          0.27378004	          0.05000325	          0.25570828	          0.39001291	          0.05000150	          0.05000291	          0.30723482	
          1.13999982	         -8.48912461	          0.25225928	          0.91369473	         17.58879979	          1.49239063	         -4.85159361	         -1.16007044	          1.37088539	         12.80333224	          3.15965730	          0.05000662	          0.05002241	          0.05001442	          0.08094600	          0.12279834	          0.11319001	          0.05001800	          0.14173544	          0.05001575	          0.05001045	          0.05000662	          0.26156030	          0.05000307	          0.22548037	          0.36578454	          0.05000154	          0.05000251	          0.31978976	
          1.15999982	         -8.39718350	          0.25961955	          0.91413135	         16.51202344	          0.88615537	         -3.94457774	         -1.15311411	          1.66498596	         12.71843921	          3.34451931	          0.05000669	          0.05002330	          0.05001261	          0.06093140	          0.10552733	          0.10708295	          0.05005224	          0.15803621	          0.05001028	          0.05001160	          0.05000787	          0.24099550	          0.05000377	          0.18118579	          0.32950890	          0.05000167	          0.05000230	          0.33119425	
          1.17999982	         -8.29438297	          0.26675318	          0.91443236	         15.49687996	          0.26700835	         -3.15069720	         -1.11173116	          2.00297775	         12.63445405	          3.49705333	          0.05001014	          0.05002339	          0.05002788	          0.05002689	          0.08461861	          0.09844629	          0.05912746	          0.16921802	          0.05000866	          0.05003008	          0.05000943	          0.21882333	          0.05000393	          0.13593868	          0.28673554	          0.05000182	          0.05000215	          0.34037648	
          1.19999981	         -8.18394832	          0.27361016	          0.91463248	         14.55432107	         -0.35135193	         -2.47757946	         -1.04758357	          2.37873780	         12.55714022	          3.61662471	          0.05001325	          0.05002460	          0.05002904	          0.05002916	          0.06454176	          0.09208401	          0.07213575	          0.17436359	          0.05000792	          0.05404119	          0.05001178	          0.19755953	          0.05000485	          0.10197318	          0.24040090	          0.05000201	          0.05000201	          0.34679884	
          1.21999981	         -8.06941371	          0.28014872	          0.91477735	         13.69053700	         -0.94865545	         -1.92360666	         -0.98530063	          2.78000600	         12.49973507	          3.70382851	          0.05001644	          0.05002536	          0.05002314	          0.05002184	          0.05133054	          0.08235932	          0.08107557	          0.17100771	          0.05000738	          0.06058139	          0.05001451	          0.17234176	          0.05000584	          0.07649726	          0.19464674	          0.05000222	          0.05000193	          0.34997344	
          1.23999981	         -7.95443583	          0.28633806	          0.91490369	         12.90839279	         -1.50005906	         -1.48167877	         -0.96129519	          3.19174323	         12.49018002	          3.76060204	          0.05001633	          0.05002773	          0.05069939	          0.05002172	          0.05006043	          0.06548094	          0.07828529	          0.15705234	          0.05000967	          0.06445656	          0.05001770	          0.15061499	          0.05000734	          0.05739667	          0.15434374	          0.05000245	          0.05000189	          0.35012741	
